<svg width="1512" height="33" viewBox="0 0 1512 33" fill="none" xmlns="http://www.w3.org/2000/svg">
<path opacity="0.05" d="M-5 2L21.6772 31.449L48.3544 2L75.001 31.449L101.679 2L128.325 31.449L155.002 2L181.68 31.449L208.357 2L235.034 31.449L261.742 2" stroke="#333333" stroke-width="2" stroke-miterlimit="10" stroke-linecap="round"/>
<path opacity="0.05" d="M262 2L288.677 31.449L315.354 2L342.001 31.449L368.679 2L395.325 31.449L422.002 2L448.68 31.449L475.357 2L502.034 31.449L528.742 2" stroke="#333333" stroke-width="2" stroke-miterlimit="10" stroke-linecap="round"/>
<path opacity="0.05" d="M529 2L555.677 31.449L582.354 2L609.001 31.449L635.679 2L662.325 31.449L689.002 2L715.68 31.449L742.357 2L769.034 31.449L795.742 2" stroke="#333333" stroke-width="2" stroke-miterlimit="10" stroke-linecap="round"/>
<path opacity="0.05" d="M796 2L822.677 31.449L849.354 2L876.001 31.449L902.679 2L929.325 31.449L956.002 2L982.68 31.449L1009.36 2L1036.03 31.449L1062.74 2" stroke="#333333" stroke-width="2" stroke-miterlimit="10" stroke-linecap="round"/>
<path opacity="0.05" d="M1063 2L1089.68 31.449L1116.35 2L1143 31.449L1169.68 2L1196.32 31.449L1223 2L1249.68 31.449L1276.36 2L1303.03 31.449L1329.74 2" stroke="#333333" stroke-width="2" stroke-miterlimit="10" stroke-linecap="round"/>
<path opacity="0.05" d="M1330 2L1356.68 31.449L1383.35 2L1410 31.449L1436.68 2L1463.32 31.449L1490 2L1516.68 31.449L1543.36 2L1570.03 31.449L1596.74 2" stroke="#333333" stroke-width="2" stroke-miterlimit="10" stroke-linecap="round"/>
</svg>
